<svg xmlns="http://www.w3.org/2000/svg" xmlns:xlink="http://www.w3.org/1999/xlink" width="41" height="48.523" viewBox="0 0 41 48.523">
  <defs>
    <clipPath id="clip-path">
      <rect id="Rectangle_157" data-name="Rectangle 157" width="41" height="48.523" fill="#fff"/>
    </clipPath>
  </defs>
  <g id="Location_Plus" data-name="Location Plus" clip-path="url(#clip-path)">
    <path id="Path_113" data-name="Path 113" d="M18.713,0c.586.12,1.176.224,1.758.362a16.292,16.292,0,0,1,9.943,6.8,16.3,16.3,0,0,1,2.77,11.767,16.585,16.585,0,0,1-1.231,4.365.467.467,0,0,1-.56.343,13.557,13.557,0,0,0-12.021,4.777,13.324,13.324,0,0,0-3.341,9.379,13.614,13.614,0,0,0,3,8.273c.077.1.145.2.221.314a3.718,3.718,0,0,1-1.487,1.856,2.379,2.379,0,0,1-3.278-1.158q-2.612-4.706-5.209-9.419Q5.713,31.2,2.145,24.753A16.193,16.193,0,0,1,.119,14.786,16.388,16.388,0,0,1,7.912,2.43,15.77,15.77,0,0,1,14.365.086,1.516,1.516,0,0,0,14.63,0ZM9.052,16.385a7.629,7.629,0,1,0,7.657-7.629,7.629,7.629,0,0,0-7.657,7.629" fill="#fff"/>
    <path id="Path_114" data-name="Path 114" d="M209.243,277.453a11.088,11.088,0,1,1-11.106,11.073,11.088,11.088,0,0,1,11.106-11.073m-1.43,12.5c0,.72-.018,1.381,0,2.041a1.4,1.4,0,0,0,1.6,1.363,1.421,1.421,0,0,0,1.238-1.451c.016-.641,0-1.282,0-1.952h1.02c.332,0,.665.007,1-.006a1.393,1.393,0,0,0,1.318-.977,1.424,1.424,0,0,0-1.427-1.862c-.625-.018-1.252,0-1.907,0,0-.685.01-1.3,0-1.915a1.451,1.451,0,0,0-.94-1.4,1.414,1.414,0,0,0-1.9,1.318c-.021.658,0,1.316,0,2-.7,0-1.337-.019-1.967,0a1.42,1.42,0,1,0,.036,2.839c.616.011,1.232,0,1.933,0" transform="translate(-179.322 -251.106)" fill="#fff"/>
    <path id="Path_115" data-name="Path 115" d="M134.919,127.02a4.779,4.779,0,1,1-4.768-4.79,4.847,4.847,0,0,1,4.768,4.79" transform="translate(-113.457 -110.624)" fill="#fff"/>
  </g>
</svg>