<svg xmlns="http://www.w3.org/2000/svg" width="70" height="70" viewBox="0 0 70 70">
  <g id="Group_286" data-name="Group 286" transform="translate(-1052 -959)">
    <rect id="bg_copy_2" data-name="bg copy 2" width="70" height="70" rx="28" transform="translate(1052 959)" fill="#97cbea"/>
    <path id="Icon_open-droplet" data-name="Icon open-droplet" d="M10.219,0,9.061,1.158C8.686,1.533,0,10.321,0,17.781a10.219,10.219,0,0,0,20.438,0c0-7.426-8.686-16.248-9.061-16.623L10.219,0ZM5.109,16.078a1.687,1.687,0,0,1,1.7,1.7,3.416,3.416,0,0,0,3.406,3.406,1.7,1.7,0,1,1,0,3.406,6.833,6.833,0,0,1-6.813-6.813,1.687,1.687,0,0,1,1.7-1.7Z" transform="translate(1076.781 980)" fill="#3a6a87"/>
  </g>
</svg>
