<svg xmlns="http://www.w3.org/2000/svg" width="41" height="26.193" viewBox="0 0 41 26.193">
  <g id="binoculars-icon" transform="translate(-0.001 0)">
    <path id="Path_111" data-name="Path 111" d="M16.875,5.739A11.371,11.371,0,0,0,6.988,3.81,6.08,6.08,0,0,1,10.124.344c1.838-.771,4.851-.224,6.033,1.425A5.619,5.619,0,0,1,16.875,5.739ZM27.869,18.458a.7.7,0,1,1,1.355-.321,3.7,3.7,0,0,0,.9,1.769,3.025,3.025,0,0,0,1.619.834A.694.694,0,0,1,31.48,22.1a4.4,4.4,0,0,1-2.335-1.224,5.022,5.022,0,0,1-1.271-2.419Zm-23.349,0a.7.7,0,0,1,1.349-.321,3.7,3.7,0,0,0,.911,1.769A3.025,3.025,0,0,0,8.4,20.74.694.694,0,1,1,8.131,22.1,4.4,4.4,0,0,1,5.8,20.877a5.022,5.022,0,0,1-1.271-2.419Zm15.936-2.54a1.645,1.645,0,1,1-1.692,1.645A1.669,1.669,0,0,1,20.456,15.919ZM8.9,11.535a5.879,5.879,0,1,1,0,11.752,5.879,5.879,0,1,1,0-11.752Zm23.349,0a5.879,5.879,0,1,1-6.04,5.877A5.961,5.961,0,0,1,32.246,11.535Zm-8.118-5.8A11.366,11.366,0,0,1,34.012,3.81,6.08,6.08,0,0,0,30.875.344C29.039-.427,26.027.12,24.846,1.769a5.619,5.619,0,0,0-.717,3.97Zm11.765.067q-1.712-1.759-5.549-1.592c-2.9.144-5.961,1.351-6.947,4.1-.825-1.808-4.968-1.808-5.79,0-.984-2.75-4.05-3.964-6.947-4.1q-3.838-.17-5.549,1.592C3.5,7.961.321,13.6.054,16.347c-1.088,11.171,14.935,13.974,17.5,2.439,1.458,2.586,4.428,2.586,5.886,0,2.569,11.535,18.592,8.732,17.5-2.439-.267-2.753-3.45-8.385-5.059-10.541Z" transform="translate(0 0)" fill="#fff" fill-rule="evenodd"/>
  </g>
</svg>
