<svg xmlns="http://www.w3.org/2000/svg" xmlns:xlink="http://www.w3.org/1999/xlink" width="46" height="45.985" viewBox="0 0 46 45.985">
  <defs>
    <clipPath id="clip-path">
      <rect id="Rectangle_154" data-name="Rectangle 154" width="46.001" height="45.985" fill="#0784bd"/>
    </clipPath>
  </defs>
  <g id="Group_275" data-name="Group 275" clip-path="url(#clip-path)">
    <path id="Path_99" data-name="Path 99" d="M4.285,41.017v-.6q0-18.787,0-37.574A4.908,4.908,0,0,1,4.362,1.8,2.319,2.319,0,0,1,6.46.023c.4-.026.8-.016,1.2-.017Q17.464,0,27.271,0a2.545,2.545,0,0,1,2.091.851,2.633,2.633,0,0,1,.556,1.814q-.011,6.986,0,13.972v.6c.519.133,1,.234,1.476.381a5.549,5.549,0,0,1,4.162,5c.17,1.547.1,3.12.133,4.682.027,1.129-.033,2.269.1,3.386a3.9,3.9,0,0,0,5.928,2.954A3.826,3.826,0,0,0,43.555,30.6a7.607,7.607,0,0,0,.067-1.095c.005-2.711,0-5.422.01-8.134a1.046,1.046,0,0,0-.35-.825c-1.179-1.149-2.352-2.306-3.5-3.486a1.246,1.246,0,0,1-.324-.773c-.03-1.613,0-3.227-.029-4.84a1.156,1.156,0,0,0-.3-.727c-1.29-1.3-2.605-2.57-3.917-3.845a1.314,1.314,0,0,1-.5-1.14,1.188,1.188,0,0,1,1.9-.8,2.891,2.891,0,0,1,.3.267q4.23,4.132,8.465,8.259a1.92,1.92,0,0,1,.631,1.5c-.016,4.824.017,9.647-.03,14.471a10.058,10.058,0,0,1-.477,3.028,5.465,5.465,0,0,1-4.736,3.953c-2.982.392-5.474-.642-6.734-3.375a8.257,8.257,0,0,1-.72-3.488c0-1.7.009-3.393-.005-5.09a11.563,11.563,0,0,0-.114-1.688,3.447,3.447,0,0,0-3.233-3.046V41.085h1.672c.316,0,.632-.007.948,0A1.574,1.574,0,0,1,34.2,42.734c.011.848,0,1.7,0,2.545,0,.649-.056.7-.722.7q-7.312,0-14.623,0H.838c-.814,0-.832-.018-.833-.846,0-.8-.011-1.6,0-2.4a1.58,1.58,0,0,1,1.668-1.657c.815-.013,1.63-.008,2.445-.012a.815.815,0,0,0,.165-.058M17.075,21.4h9.083c.717,0,.781-.059.782-.753q0-7.509,0-15.019c0-.652-.071-.725-.708-.725q-9.133,0-18.265,0c-.637,0-.709.075-.709.725q0,7.509,0,15.019c0,.675.076.751.737.751h9.083" transform="translate(0 0)" fill="#0784bd"/>
  </g>
</svg>
