<svg xmlns="http://www.w3.org/2000/svg" xmlns:xlink="http://www.w3.org/1999/xlink" width="41" height="40.955" viewBox="0 0 41 40.955">
  <defs>
    <clipPath id="clip-path">
      <rect id="Rectangle_159" data-name="Rectangle 159" width="41" height="40.955" fill="#fff"/>
    </clipPath>
  </defs>
  <g id="Price_Change" data-name="Price Change" clip-path="url(#clip-path)">
    <path id="Path_118" data-name="Path 118" d="M39.794,14.655a7.482,7.482,0,0,1-3.438,3.576c-.413.2-.414.2-.445-.261,0-.053,0-.107-.008-.158a1.708,1.708,0,0,1,.751-1.786,6.918,6.918,0,0,0,2.465-4.451,10.49,10.49,0,0,0-.97-7.136A6.342,6.342,0,0,0,36.78,2.7a3.662,3.662,0,0,0-5.2.022A7.865,7.865,0,0,0,29.195,7.41a43.428,43.428,0,0,0-.211,5.252.814.814,0,0,1-.315.761.758.758,0,0,1-.826.067.733.733,0,0,1-.458-.715c.024-.7-.016-1.409-.018-2.113,0-.315-.121-.323-.361-.187a2.543,2.543,0,0,0-1.339,2.739,2.466,2.466,0,0,0,1.519,1.948,2.678,2.678,0,0,0,3.173-.972,3.34,3.34,0,0,0,.4-2.1c.046-1.474.013-2.95.179-4.419.006-.053,0-.106.011-.158.072-.512.137-.547.6-.333a4.244,4.244,0,0,1,2.446,2.81,4.883,4.883,0,0,1,.123,1.3c0,1.7,0,3.4,0,5.105h-.032c0,1.755.013,3.51,0,5.264a3.9,3.9,0,0,1-.149,1.033,7.76,7.76,0,1,0-10.54,11.393q-2.73,2.726-5.451,5.467a4.792,4.792,0,0,1-2.653,1.314,4.514,4.514,0,0,1-4.14-1.3c-3.247-3.109-6.41-6.3-9.59-9.477A5.136,5.136,0,0,1,.785,23.65a1.172,1.172,0,0,1,.2-.248q7.185-7.142,14.374-14.28c.406-.4.836-.781,1.27-1.152A4.425,4.425,0,0,1,19.65,6.876c1.982.02,3.965,0,5.947-.009.584,0,1.169-.035,1.754-.034.215,0,.287-.071.336-.281a9.946,9.946,0,0,1,1.789-3.945A6.192,6.192,0,0,1,32.83.183,5.206,5.206,0,0,1,37.84,1.467a9.544,9.544,0,0,1,2.974,5.75,12.1,12.1,0,0,1-1.024,7.442" transform="translate(0.002 0)" fill="#fff"/>
    <path id="Path_119" data-name="Path 119" d="M282.385,271.8a6.845,6.845,0,1,0,6.845,6.845,6.845,6.845,0,0,0-6.845-6.845m.054,12.956V283h-.052a4.362,4.362,0,0,1-3.649-6.766l.96.96a3.052,3.052,0,0,0,.515,3.6,3.02,3.02,0,0,0,2.217.882v-1.868l2.471,2.471Zm3.588-3.7-.96-.96a3.047,3.047,0,0,0-2.678-4.5h-.052v1.881l-2.471-2.462,2.471-2.471V274.3a4.3,4.3,0,0,1,3.143,1.266,4.379,4.379,0,0,1,.551,5.491" transform="translate(-253.511 -250.073)" fill="#fff"/>
  </g>
</svg>
