
<svg xmlns="http://www.w3.org/2000/svg" width="36.803" height="41.934" viewBox="0 0 36.803 41.934">
  <path id="Reports" d="M-2570.494-983.07h-32.2a2.211,2.211,0,0,1-2.3-2.106v-37.719a2.212,2.212,0,0,1,2.3-2.106h19.168v11.939a2.212,2.212,0,0,0,2.3,2.106h13.032v25.784a2.212,2.212,0,0,1-2.3,2.1Zm-25.976-9a1.346,1.346,0,0,0-1.346,1.346,1.346,1.346,0,0,0,1.346,1.346h19.748a1.346,1.346,0,0,0,1.346-1.346,1.347,1.347,0,0,0-1.346-1.346Zm0-6.283a1.346,1.346,0,0,0-1.346,1.346,1.346,1.346,0,0,0,1.346,1.346h16.158a1.346,1.346,0,0,0,1.346-1.346,1.346,1.346,0,0,0-1.346-1.346Zm0-6.284a1.346,1.346,0,0,0-1.346,1.346,1.346,1.346,0,0,0,1.346,1.347h19.748a1.347,1.347,0,0,0,1.346-1.347,1.347,1.347,0,0,0-1.346-1.346Zm28.276-9.13h-12.268V-1025h.585a2.4,2.4,0,0,1,1.629.615l9.383,8.6a2.024,2.024,0,0,1,.671,1.482v.539Z" transform="translate(2604.997 1025.002)" fill="#fff"/>
</svg>
